<?xml version="1.0" encoding="UTF-8"?>
<!DOCTYPE svg PUBLIC "-//W3C//DTD SVG 1.1//EN" "http://www.w3.org/Graphics/SVG/1.1/DTD/svg11.dtd">
<!-- Creator: CorelDRAW X7 -->
<svg xmlns="http://www.w3.org/2000/svg" xml:space="preserve" width="403px" height="246px" version="1.1" style="shape-rendering:geometricPrecision; text-rendering:geometricPrecision; image-rendering:optimizeQuality; fill-rule:evenodd; clip-rule:evenodd"
viewBox="0 0 324 198"
 xmlns:xlink="http://www.w3.org/1999/xlink">
 <defs>
  <style type="text/css">
   <![CDATA[
    .fil0 {fill:#CCCCCC}
    .fil1 {fill:white}
   ]]>
  </style>
 </defs>
 <g id="Camada_x0020_1">
  <metadata id="CorelCorpID_0Corel-Layer"/>
  <path class="fil0" d="M324 198l0 -112c-13,0 -26,0 -40,0 -95,0 -189,0 -284,0l0 1c0,36 0,72 0,108 0,0 0,1 0,1 0,1 0,2 1,2l323 0z"/>
  <path class="fil1" d="M162 172l20 0 0 -26c1,1 5,3 5,4 5,3 11,7 16,10 2,1 4,3 5,4l13 9c1,0 2,1 3,1 0,-19 0,-39 0,-59 0,-1 0,-7 0,-8l-20 0 0 26c0,-1 -9,-7 -10,-7l-29 -20c-1,0 -3,-1 -3,-1l0 67z"/>
  <path class="fil0" d="M101 47l0 17 50 0 0 -15 -27 0c0,0 0,0 0,0l0 -8 27 0 0 -16 -10 0c-1,0 -2,-1 -4,-1l-12 0c0,0 -1,1 -1,0l0 -9c0,0 0,0 0,0l27 0 0 -13c0,-1 0,-1 0,-2l-50 0c0,16 0,31 0,47z"/>
  <path class="fil1" d="M253 172l50 0 0 -15 -28 0 0 -9 28 0 0 -16 -28 0 0 -10 28 0 0 -15c-1,0 -34,0 -38,0 -4,0 -8,0 -12,0l0 65z"/>
  <path class="fil0" d="M252 65l50 0c0,0 0,-1 0,-1l0 -14 -27 0c0,0 0,0 0,-1l0 -8 27 0c0,0 0,0 0,-1l0 -15c0,0 0,-1 0,-1l-27 0 0 -9 27 0 0 -9c0,-2 0,-4 0,-6l-50 0 0 65z"/>
  <path class="fil1" d="M85 159c-1,0 -18,-12 -18,-12l-3 3c0,0 -2,1 -3,2 -3,1 -6,1 -9,0 -5,-1 -9,-6 -9,-12 -1,-7 4,-11 8,-13 3,-1 7,-1 10,0 3,2 4,3 6,5 1,-1 12,-9 13,-9l5 -3c0,-1 -1,-2 -2,-2 -1,-2 -4,-5 -5,-6 -9,-7 -22,-10 -33,-6 -14,5 -25,17 -25,33 0,9 4,16 8,22 3,5 9,9 16,12 8,3 16,2 24,-1 6,-2 12,-6 15,-10 0,-1 1,-2 2,-3z"/>
  <path class="fil0" d="M22 0l0 17 18 0 0 48 22 0 0 -48 18 0 0 -17 -58 0 0 0c0,0 0,0 0,0z"/>
  <path class="fil0" d="M179 1l0 63c0,0 0,0 0,0l47 0 0 -17 -24 0 0 -47 -9 0c-1,0 -2,0 -3,0l-10 0c0,0 -1,0 -1,1z"/>
  <path class="fil1" d="M112 172l22 0 0 -65c-1,0 -21,0 -22,0l0 65z"/>
 </g>
</svg>
